<mxfile host="app.diagrams.net" modified="2023-06-26T19:27:36.767Z" agent="Mozilla/5.0 (X11; Linux x86_64) AppleWebKit/537.36 (KHTML, like Gecko) Chrome/113.0.0.0 Safari/537.36" etag="hd6WbihikfEz809tzVdK" version="21.5.0" type="device">
  <diagram name="Страница 1" id="6kGamcbb8y0r6bEm2Daz">
    <mxGraphModel dx="2049" dy="1059" grid="1" gridSize="10" guides="1" tooltips="1" connect="1" arrows="1" fold="1" page="1" pageScale="1" pageWidth="1100" pageHeight="850" math="0" shadow="0">
      <root>
        <mxCell id="0" />
        <mxCell id="1" parent="0" />
        <mxCell id="J6dJNQdooLhvIeOx2bOx-5" style="edgeStyle=orthogonalEdgeStyle;rounded=0;orthogonalLoop=1;jettySize=auto;html=1;entryX=0;entryY=0.5;entryDx=0;entryDy=0;" edge="1" parent="1" source="J6dJNQdooLhvIeOx2bOx-1" target="J6dJNQdooLhvIeOx2bOx-2">
          <mxGeometry relative="1" as="geometry" />
        </mxCell>
        <mxCell id="J6dJNQdooLhvIeOx2bOx-1" value="feature set F" style="rounded=1;whiteSpace=wrap;html=1;" vertex="1" parent="1">
          <mxGeometry x="250" y="395" width="120" height="60" as="geometry" />
        </mxCell>
        <mxCell id="J6dJNQdooLhvIeOx2bOx-6" style="edgeStyle=orthogonalEdgeStyle;rounded=0;orthogonalLoop=1;jettySize=auto;html=1;" edge="1" parent="1" source="J6dJNQdooLhvIeOx2bOx-2" target="J6dJNQdooLhvIeOx2bOx-3">
          <mxGeometry relative="1" as="geometry" />
        </mxCell>
        <mxCell id="J6dJNQdooLhvIeOx2bOx-2" value="mesuring all f&lt;br&gt;in F by&amp;nbsp;&lt;i&gt;μ&lt;/i&gt;" style="rounded=1;whiteSpace=wrap;html=1;" vertex="1" parent="1">
          <mxGeometry x="410" y="395" width="120" height="60" as="geometry" />
        </mxCell>
        <mxCell id="J6dJNQdooLhvIeOx2bOx-7" style="edgeStyle=orthogonalEdgeStyle;rounded=0;orthogonalLoop=1;jettySize=auto;html=1;" edge="1" parent="1" source="J6dJNQdooLhvIeOx2bOx-3" target="J6dJNQdooLhvIeOx2bOx-4">
          <mxGeometry relative="1" as="geometry" />
        </mxCell>
        <mxCell id="J6dJNQdooLhvIeOx2bOx-3" value="cutting F&#39; from&lt;br&gt;F with&amp;nbsp;&lt;i&gt;κ&lt;/i&gt;" style="rounded=1;whiteSpace=wrap;html=1;" vertex="1" parent="1">
          <mxGeometry x="570" y="395" width="120" height="60" as="geometry" />
        </mxCell>
        <mxCell id="J6dJNQdooLhvIeOx2bOx-4" value="training classifier&lt;br&gt;C on F&#39;" style="rounded=1;whiteSpace=wrap;html=1;" vertex="1" parent="1">
          <mxGeometry x="730" y="395" width="120" height="60" as="geometry" />
        </mxCell>
      </root>
    </mxGraphModel>
  </diagram>
</mxfile>
